<?xml version="1.0" encoding="UTF-8"?>
<svg version="1.1" xmlns="http://www.w3.org/2000/svg" width="32" height="32">
<path d="M0 0 C1.0725 -0.01417969 2.145 -0.02835937 3.25 -0.04296875 C6 0.1875 6 0.1875 8 2.1875 C8.845625 2.785625 9.69125 3.38375 10.5625 4 C13.44090843 6.58318705 13.74707132 7.39356981 14 11.1875 C14.08507812 11.87199219 14.17015625 12.55648438 14.2578125 13.26171875 C14.61392377 17.82149129 14.21948876 20.56494477 11.3125 24.1875 C8.64269518 26.88219811 6.89311617 28.09480676 3 28.1875 C2.36835938 28.23519531 1.73671875 28.28289063 1.0859375 28.33203125 C-4.47531934 28.61321839 -7.36952633 27.25430074 -11.75 23.8125 C-13.47836521 21.56562523 -13.69190229 20.02199897 -14 17.1875 C-14.13148437 16.15882812 -14.13148437 16.15882812 -14.265625 15.109375 C-14.61537428 10.43545284 -14.20045191 7.82416576 -11.125 4.1875 C-7.50295451 0.40797427 -5.22813262 0.03141907 0 0 Z " fill="#DD5A1D" transform="translate(16,1.8125)"/>
<path d="M0 0 C1.375 2.5625 1.375 2.5625 2 5 C2.66 5.33 3.32 5.66 4 6 C3.67 7.32 3.34 8.64 3 10 C3 9.01 3 8.02 3 7 C2.87625 7.804375 2.7525 8.60875 2.625 9.4375 C2.315625 10.7059375 2.315625 10.7059375 2 12 C1.01 12.495 1.01 12.495 0 13 C-0.73075648 15.3140622 -1.40138258 17.64828869 -2 20 C-3.258125 20.04125 -4.51625 20.0825 -5.8125 20.125 C-6.52019531 20.14820312 -7.22789063 20.17140625 -7.95703125 20.1953125 C-10 20 -10 20 -13 18 C-12.67 16.35 -12.34 14.7 -12 13 C-12.99 12.34 -13.98 11.68 -15 11 C-14.69078116 9.54096742 -14.37751201 8.08279278 -14.0625 6.625 C-13.88847656 5.81289062 -13.71445313 5.00078125 -13.53515625 4.1640625 C-12.91638998 1.66189816 -12.46625207 0.37300166 -10.4375 -1.25 C-6.71337716 -2.39588395 -3.4920176 -1.66875177 0 0 Z " fill="#F6E2DA" transform="translate(21,10)"/>
<path d="M0 0 C0.33 0 0.66 0 1 0 C1 1.65 1 3.3 1 5 C1.66 5 2.32 5 3 5 C3 6.32 3 7.64 3 9 C4.32 9.66 5.64 10.32 7 11 C6.34 12.65 5.68 14.3 5 16 C0.24137931 12.70557029 0.24137931 12.70557029 -0.8125 9.625 C-1.01950224 6.72696867 -1.13198976 3.9037748 -1 1 C-0.67 0.67 -0.34 0.34 0 0 Z " fill="#BB4B14" transform="translate(3,12)"/>
<path d="M0 0 C1.64826111 2.96687001 2.44271087 5.65626525 3 9 C-1.75 10.125 -1.75 10.125 -4 9 C-3.46930939 5.17902761 -2.50298434 2.93828597 0 0 Z " fill="#FEFBFA" transform="translate(10,12)"/>
<path d="M0 0 C0.66 0.33 1.32 0.66 2 1 C0.90344712 2.31886772 -0.20253423 3.62990057 -1.3125 4.9375 C-1.92738281 5.66839844 -2.54226562 6.39929688 -3.17578125 7.15234375 C-5 9 -5 9 -8 10 C-6.5682479 4.98886765 -4.01554307 3.05530451 0 0 Z " fill="#79340F" transform="translate(10,2)"/>
<path d="M0 0 C1.32 0.66 2.64 1.32 4 2 C3.34 3.65 2.68 5.3 2 7 C0.68 5.68 -0.64 4.36 -2 3 C-1.34 2.01 -0.68 1.02 0 0 Z " fill="#BE531F" transform="translate(6,21)"/>
<path d="" fill="#000000" transform="translate(0,0)"/>
</svg>
