<svg width="6745" height="1805" viewBox="0 0 6745 1805" fill="none" xmlns="http://www.w3.org/2000/svg">
<path d="M1552.05 1319.3C1552.05 1458.34 1439.34 1571.05 1300.3 1571.05H465.747C326.71 1571.05 214 1458.34 214 1319.3V484.747C214 345.71 326.71 233 465.747 233H1300.3C1439.34 233 1552.05 345.71 1552.05 484.747V1319.3Z" fill="white"/>
<path opacity="0.34" d="M932.75 1167.93C932.75 1167.93 993.995 1321.3 1168.5 1571.05C1175.37 1357.62 1153.32 1256.15 1153.32 1256.15" fill="#B3B3B3"/>
<path d="M989.838 783.23C989.455 760.897 971.044 743.104 948.707 743.49C926.376 743.875 908.585 762.292 908.973 784.625C909.359 806.956 927.776 824.748 950.107 824.358C972.44 823.973 990.227 805.559 989.838 783.23ZM1300.3 233H465.747C326.71 233 214 345.71 214 484.747V1319.3C214 1413.4 265.627 1495.42 342.091 1538.62C420.623 1497.72 535.434 1420.42 585.625 1288.94C604.799 1306.13 801.047 1265.09 777.568 1060.58C769.202 966.351 701.458 869.101 678.914 812.868C656.37 756.63 655.814 724.285 683.163 668.536C702.703 629.099 683.788 626.728 667.894 643.185L664.78 645.036C664.78 645.036 556.489 724.207 669.219 902.015C781.947 1079.83 751.525 1191.82 610.457 1246.38C524.569 1269.44 438.861 1199.01 425.663 1163.29C412.526 1131.15 402.396 1169.08 408.284 1197.74C368.868 1205.61 274.675 1059.83 371.588 946.707C415.705 899.211 429.245 850.44 428.285 794.729C427.323 739.018 442.164 661.465 549.057 605.689C549.057 605.689 525.466 593.062 499.952 598.898C474.435 604.732 499.043 546.335 609.074 516.121C631.988 515.724 649.324 504.64 678.531 478.518C707.739 452.397 765.928 386.676 855.723 433.664C929.25 475.535 934.967 494.312 963.154 487.084C987.304 479.927 937.244 470.002 940.844 444.328C944.444 418.648 1046.97 422.269 1082.83 468.835C1118.69 515.407 1129.52 517.914 1163.38 526.768C1197.23 535.619 1237.92 549.747 1259.12 606.005C1264.76 620.739 1247.06 610.257 1247.06 610.257C1247.06 610.257 1195.53 593.621 1225.84 630.847C1256.15 668.074 1279.29 681.155 1275.32 763.467C1271.35 845.773 1284.87 848.239 1338.95 856.742C1393.02 865.25 1441.62 868.447 1442.99 947.972C1444.37 1027.49 1426.68 1096.56 1390.38 1102.58C1354.09 1108.6 1338.89 1087.29 1338.64 1072.46C1338.64 1072.46 1350.32 1046.64 1361.82 1010.04C1379.3 1007.05 1412.39 971.419 1412.99 928.27C1413.59 885.119 1380.04 893.78 1335.54 893.208C1291.03 892.626 1235.77 893.577 1251.41 940.496C1267.03 986.065 1305.12 1005.63 1318.59 1005.4C1311.47 1060.8 1222.09 1116.27 1128.49 1082.84C1034.89 1049.4 1026.45 1029.32 1012.79 1018.77C999.12 1008.23 985.876 1021.94 1001.24 1052.68C1016.6 1083.42 1131.75 1193.33 1313.58 1105.25C1313.58 1105.25 1329.36 1124.35 1346.95 1128.08C1339.49 1164.62 1271.57 1234.27 1171.65 1239.83C1073.24 1245.3 978.283 1206.77 940.91 1150.79C913.678 1135.08 945.568 1266.26 1119.76 1279.83C1116.54 1357.34 1134.33 1480.67 1168.5 1571.06H1300.31C1439.34 1571.06 1552.05 1458.34 1552.05 1319.31V484.749C1552.05 345.71 1439.34 233 1300.3 233ZM1212.04 768.603C1211.66 746.271 1193.24 728.481 1170.91 728.868C1148.57 729.253 1130.79 747.669 1131.18 769.998C1131.56 792.329 1149.97 810.121 1172.31 809.735C1194.64 809.349 1212.43 790.934 1212.04 768.603Z" fill="#FB651F"/>
<path opacity="0.71" d="M678.913 812.866C656.368 756.628 655.813 724.283 683.162 668.534C702.702 629.097 683.787 626.726 667.893 643.183L664.778 645.034C664.778 645.034 556.488 724.205 669.217 902.013C781.945 1079.83 751.523 1191.82 610.455 1246.38C524.568 1269.44 438.859 1199.01 425.662 1163.29C412.525 1131.15 402.394 1169.08 408.283 1197.74C394.869 1200.42 375.117 1185.29 358.707 1159.73L490.999 1431.98C529.284 1393.69 563.65 1346.51 585.625 1288.94C604.799 1306.13 801.048 1265.09 777.568 1060.58C769.201 966.349 701.457 869.099 678.913 812.866ZM1172.31 809.733C1194.64 809.348 1212.43 790.934 1212.04 768.601C1211.66 746.269 1193.24 728.48 1170.91 728.866C1148.57 729.251 1130.79 747.667 1131.18 769.996C1131.56 792.329 1149.97 810.12 1172.31 809.733ZM1275.32 763.464C1271.35 845.77 1284.87 848.236 1338.95 856.738C1355.58 859.355 1371.7 861.474 1386.08 865.465L1260.15 609.776C1261.29 618.677 1247.06 610.254 1247.06 610.254C1247.06 610.254 1195.53 593.618 1225.84 630.844C1256.15 668.071 1279.29 681.153 1275.32 763.464ZM1435.61 896.585L1429.53 893.887C1437.67 906.282 1442.57 923.511 1442.99 947.969C1444.36 1027.49 1426.68 1096.55 1390.38 1102.58C1354.08 1108.6 1338.89 1087.28 1338.63 1072.46C1338.63 1072.46 1350.32 1046.64 1361.82 1010.04C1379.3 1007.04 1412.39 971.416 1412.99 928.267C1413.59 885.115 1380.03 893.777 1335.54 893.205C1291.03 892.623 1235.77 893.574 1251.41 940.493C1267.03 986.062 1305.11 1005.63 1318.59 1005.39C1311.47 1060.79 1222.09 1116.27 1128.49 1082.83C1034.88 1049.39 1026.45 1029.32 1012.79 1018.77C999.119 1008.22 985.875 1021.93 1001.23 1052.68C1016.6 1083.41 1131.75 1193.33 1313.58 1105.25C1313.58 1105.25 1329.36 1124.34 1346.95 1128.08C1339.49 1164.61 1271.57 1234.27 1171.65 1239.83C1073.24 1245.3 978.282 1206.77 940.909 1150.78C913.677 1135.08 945.566 1266.25 1119.76 1279.82C1116.54 1357.34 1134.32 1480.67 1168.5 1571.05H1300.3C1439.34 1571.05 1552.05 1458.34 1552.05 1319.3V1133L1435.61 896.585ZM989.839 783.229C989.455 760.897 971.044 743.103 948.707 743.49C926.376 743.875 908.585 762.292 908.974 784.624C909.359 806.955 927.776 824.748 950.107 824.358C972.441 823.973 990.227 805.559 989.839 783.229ZM328.396 1097.35L340.205 1121.65C336.856 1112.2 334.244 1102.51 332.392 1092.67L328.396 1097.35Z" fill="url(#paint0_linear_382_1522)"/>
<path d="M1840.04 1264.03V642.885H2088.74C2134.44 642.885 2172.55 649.659 2203.08 663.206C2233.61 676.753 2256.56 695.557 2271.93 719.618C2287.29 743.477 2294.98 770.976 2294.98 802.114C2294.98 826.377 2290.13 847.709 2280.42 866.108C2270.71 884.306 2257.37 899.268 2240.39 910.996C2223.6 922.521 2204.39 930.71 2182.76 935.562V941.628C2206.42 942.639 2228.56 949.311 2249.18 961.645C2270.01 973.979 2286.89 991.267 2299.83 1013.51C2312.77 1035.55 2319.24 1061.83 2319.24 1092.36C2319.24 1125.32 2311.05 1154.74 2294.67 1180.62C2278.5 1206.3 2254.54 1226.62 2222.79 1241.58C2191.05 1256.55 2151.93 1264.03 2105.42 1264.03H1840.04ZM1971.37 1156.66H2078.43C2115.02 1156.66 2141.71 1149.69 2158.5 1135.74C2175.28 1121.58 2183.67 1102.78 2183.67 1079.32C2183.67 1062.14 2179.53 1046.97 2171.24 1033.83C2162.95 1020.69 2151.12 1010.37 2135.75 1002.89C2120.59 995.412 2102.49 991.671 2081.46 991.671H1971.37V1156.66ZM1971.37 902.807H2068.72C2086.72 902.807 2102.69 899.673 2116.64 893.405C2130.8 886.934 2141.92 877.836 2150 866.108C2158.29 854.381 2162.44 840.328 2162.44 823.951C2162.44 801.507 2154.45 783.411 2138.48 769.661C2122.71 755.912 2100.26 749.037 2071.15 749.037H1971.37V902.807ZM2402.27 1264.03V798.171H2527.53V879.453H2532.38C2540.87 850.539 2555.13 828.702 2575.14 813.942C2595.16 798.98 2618.21 791.498 2644.3 791.498C2650.77 791.498 2657.74 791.903 2665.22 792.711C2672.7 793.52 2679.27 794.632 2684.94 796.048V910.692C2678.87 908.872 2670.48 907.255 2659.76 905.84C2649.05 904.424 2639.24 903.717 2630.34 903.717C2611.34 903.717 2594.35 907.862 2579.39 916.151C2564.63 924.239 2552.9 935.562 2544.21 950.12C2535.72 964.678 2531.47 981.46 2531.47 1000.47V1264.03H2402.27ZM2940.54 1273.13C2893.42 1273.13 2852.68 1263.12 2818.31 1243.1C2784.14 1222.88 2757.75 1194.78 2739.15 1158.79C2720.55 1122.59 2711.25 1080.64 2711.25 1032.92C2711.25 984.797 2720.55 942.74 2739.15 906.749C2757.75 870.557 2784.14 842.451 2818.31 822.434C2852.68 802.215 2893.42 792.105 2940.54 792.105C2987.65 792.105 3028.29 802.215 3062.46 822.434C3096.83 842.451 3123.32 870.557 3141.92 906.749C3160.52 942.74 3169.83 984.797 3169.83 1032.92C3169.83 1080.64 3160.52 1122.59 3141.92 1158.79C3123.32 1194.78 3096.83 1222.88 3062.46 1243.1C3028.29 1263.12 2987.65 1273.13 2940.54 1273.13ZM2941.14 1173.04C2962.58 1173.04 2980.47 1166.97 2994.83 1154.84C3009.18 1142.51 3020 1125.73 3027.28 1104.5C3034.76 1083.27 3038.5 1059.1 3038.5 1032.01C3038.5 1004.92 3034.76 980.753 3027.28 959.522C3020 938.292 3009.18 921.51 2994.83 909.176C2980.47 896.842 2962.58 890.675 2941.14 890.675C2919.51 890.675 2901.31 896.842 2886.55 909.176C2871.99 921.51 2860.97 938.292 2853.49 959.522C2846.21 980.753 2842.57 1004.92 2842.57 1032.01C2842.57 1059.1 2846.21 1083.27 2853.49 1104.5C2860.97 1125.73 2871.99 1142.51 2886.55 1154.84C2901.31 1166.97 2919.51 1173.04 2941.14 1173.04ZM3334.06 1264.03L3207.28 798.171H3338L3410.18 1111.17H3414.43L3489.65 798.171H3617.94L3694.37 1109.35H3698.31L3769.28 798.171H3899.7L3773.23 1264.03H3636.44L3556.37 971.047H3550.61L3470.54 1264.03H3334.06ZM4356.23 931.013L4237.94 938.292C4235.92 928.182 4231.58 919.083 4224.9 910.996C4218.23 902.706 4209.44 896.134 4198.52 891.281C4187.8 886.227 4174.96 883.699 4160 883.699C4139.98 883.699 4123.1 887.945 4109.35 896.437C4095.6 904.727 4088.73 915.848 4088.73 929.8C4088.73 940.92 4093.17 950.322 4102.07 958.006C4110.97 965.689 4126.23 971.856 4147.87 976.507L4232.18 993.491C4277.47 1002.79 4311.24 1017.75 4333.48 1038.38C4355.72 1059 4366.84 1086.1 4366.84 1119.66C4366.84 1150.19 4357.85 1176.98 4339.85 1200.03C4322.06 1223.08 4297.59 1241.08 4266.45 1254.02C4235.52 1266.76 4199.83 1273.13 4159.39 1273.13C4097.72 1273.13 4048.59 1260.29 4011.99 1234.61C3975.6 1208.73 3954.27 1173.55 3948 1129.06L4075.08 1122.39C4078.92 1141.19 4088.22 1155.55 4102.98 1165.46C4117.74 1175.16 4136.65 1180.02 4159.7 1180.02C4182.34 1180.02 4200.54 1175.67 4214.29 1166.97C4228.24 1158.08 4235.32 1146.65 4235.52 1132.7C4235.32 1120.97 4230.36 1111.37 4220.66 1103.89C4210.95 1096.21 4195.99 1090.34 4175.77 1086.3L4095.09 1070.22C4049.6 1061.13 4015.73 1045.35 3993.49 1022.91C3971.45 1000.47 3960.43 971.856 3960.43 937.079C3960.43 907.154 3968.52 881.374 3984.7 859.739C4001.07 838.104 4024.02 821.423 4053.54 809.696C4083.27 797.969 4118.04 792.105 4157.88 792.105C4216.71 792.105 4263.02 804.54 4296.78 829.41C4330.75 854.28 4350.57 888.147 4356.23 931.013ZM4660.51 1273.13C4612.59 1273.13 4571.34 1263.42 4536.76 1244.01C4502.39 1224.4 4475.9 1196.7 4457.3 1160.91C4438.7 1124.92 4429.4 1082.36 4429.4 1033.22C4429.4 985.302 4438.7 943.246 4457.3 907.053C4475.9 870.86 4502.09 842.654 4535.85 822.434C4569.82 802.215 4609.65 792.105 4655.35 792.105C4686.08 792.105 4714.7 797.059 4741.18 806.966C4767.87 816.672 4791.12 831.331 4810.94 850.944C4830.96 870.557 4846.53 895.224 4857.65 924.947C4868.77 954.467 4874.33 989.043 4874.33 1028.67V1064.16H4480.96V984.089H4752.71C4752.71 965.487 4748.66 949.008 4740.58 934.652C4732.49 920.296 4721.27 909.075 4706.91 900.987C4692.76 892.697 4676.28 888.552 4657.47 888.552C4637.86 888.552 4620.47 893.101 4605.31 902.2C4590.35 911.097 4578.62 923.127 4570.13 938.292C4561.63 953.254 4557.29 969.935 4557.08 988.335V1064.46C4557.08 1087.51 4561.33 1107.43 4569.82 1124.21C4578.52 1140.99 4590.75 1153.93 4606.52 1163.03C4622.29 1172.13 4641 1176.68 4662.63 1176.68C4676.99 1176.68 4690.13 1174.66 4702.06 1170.61C4713.99 1166.57 4724.2 1160.5 4732.69 1152.42C4741.18 1144.33 4747.65 1134.42 4752.1 1122.69L4871.6 1130.58C4865.53 1159.29 4853.1 1184.36 4834.29 1205.8C4815.69 1227.03 4791.63 1243.61 4762.11 1255.54C4732.79 1267.26 4698.92 1273.13 4660.51 1273.13ZM4958.64 1264.03V798.171H5083.9V879.453H5088.76C5097.25 850.539 5111.5 828.702 5131.52 813.942C5151.54 798.98 5174.59 791.498 5200.67 791.498C5207.14 791.498 5214.12 791.903 5221.6 792.711C5229.08 793.52 5235.65 794.632 5241.31 796.048V910.692C5235.25 908.872 5226.86 907.255 5216.14 905.84C5205.42 904.424 5195.62 903.717 5186.72 903.717C5167.71 903.717 5150.73 907.862 5135.77 916.151C5121.01 924.239 5109.28 935.562 5100.58 950.12C5092.09 964.678 5087.85 981.46 5087.85 1000.47V1264.03H4958.64ZM5881.33 953.456C5881.33 1021.19 5868.5 1078.82 5842.82 1126.33C5817.34 1173.85 5782.56 1210.14 5738.48 1235.22C5694.61 1260.09 5645.27 1272.52 5590.48 1272.52C5535.28 1272.52 5485.74 1259.98 5441.86 1234.91C5397.99 1209.84 5363.31 1173.55 5337.83 1126.03C5312.36 1078.51 5299.62 1020.99 5299.62 953.456C5299.62 885.721 5312.36 828.096 5337.83 780.58C5363.31 733.064 5397.99 696.871 5441.86 672.001C5485.74 646.929 5535.28 634.393 5590.48 634.393C5645.27 634.393 5694.61 646.929 5738.48 672.001C5782.56 696.871 5817.34 733.064 5842.82 780.58C5868.5 828.096 5881.33 885.721 5881.33 953.456ZM5748.19 953.456C5748.19 909.58 5741.62 872.578 5728.48 842.451C5715.53 812.324 5697.24 789.476 5673.58 773.907C5649.92 758.338 5622.22 750.554 5590.48 750.554C5558.73 750.554 5531.03 758.338 5507.38 773.907C5483.72 789.476 5465.32 812.324 5452.18 842.451C5439.24 872.578 5432.77 909.58 5432.77 953.456C5432.77 997.333 5439.24 1034.33 5452.18 1064.46C5465.32 1094.59 5483.72 1117.44 5507.38 1133.01C5531.03 1148.57 5558.73 1156.36 5590.48 1156.36C5622.22 1156.36 5649.92 1148.57 5673.58 1133.01C5697.24 1117.44 5715.53 1094.59 5728.48 1064.46C5741.62 1034.33 5748.19 997.333 5748.19 953.456ZM6315.57 821.524C6313.15 797.059 6302.73 778.052 6284.33 764.505C6265.93 750.958 6240.96 744.185 6209.42 744.185C6187.99 744.185 6169.89 747.218 6155.13 753.283C6140.37 759.147 6129.05 767.336 6121.16 777.85C6113.48 788.364 6109.64 800.294 6109.64 813.639C6109.23 824.759 6111.56 834.465 6116.61 842.755C6121.87 851.045 6129.05 858.223 6138.15 864.288C6147.25 870.152 6157.76 875.308 6169.69 879.756C6181.62 884.002 6194.36 887.642 6207.9 890.675L6263.71 904.02C6290.8 910.086 6315.67 918.173 6338.32 928.283C6360.97 938.393 6380.58 950.828 6397.16 965.588C6413.74 980.348 6426.58 997.737 6435.68 1017.75C6444.98 1037.77 6449.73 1060.72 6449.93 1086.6C6449.73 1124.61 6440.02 1157.57 6420.82 1185.48C6401.81 1213.18 6374.31 1234.71 6338.32 1250.08C6302.53 1265.24 6259.36 1272.82 6208.81 1272.82C6158.67 1272.82 6115 1265.14 6077.79 1249.77C6040.79 1234.41 6011.88 1211.66 5991.05 1181.53C5970.43 1151.2 5959.61 1113.7 5958.6 1069.01H6085.68C6087.09 1089.84 6093.06 1107.23 6103.57 1121.18C6114.29 1134.93 6128.54 1145.34 6146.34 1152.42C6164.33 1159.29 6184.65 1162.73 6207.3 1162.73C6229.54 1162.73 6248.85 1159.49 6265.23 1153.02C6281.81 1146.55 6294.65 1137.55 6303.74 1126.03C6312.84 1114.5 6317.39 1101.26 6317.39 1086.3C6317.39 1072.35 6313.25 1060.62 6304.96 1051.12C6296.87 1041.61 6284.94 1033.53 6269.17 1026.85C6253.6 1020.18 6234.49 1014.11 6211.85 1008.66L6144.21 991.671C6091.84 978.933 6050.5 959.017 6020.17 931.923C5989.84 904.829 5974.77 868.332 5974.98 822.434C5974.77 784.826 5984.78 751.969 6005 723.864C6025.42 695.759 6053.43 673.821 6089.01 658.05C6124.6 642.278 6165.04 634.393 6210.33 634.393C6256.43 634.393 6296.67 642.278 6331.04 658.05C6365.62 673.821 6392.51 695.759 6411.72 723.864C6430.93 751.969 6440.83 784.523 6441.44 821.524H6315.57Z" fill="black" fill-opacity="0.8"/>
<defs>
<linearGradient id="paint0_linear_382_1522" x1="666.527" y1="707.304" x2="1513.5" y2="1977.76" gradientUnits="userSpaceOnUse">
<stop stop-color="#DE4E12"/>
<stop offset="1" stop-color="#FB651F"/>
</linearGradient>
</defs>
</svg>
